<mxfile host="Electron" agent="Mozilla/5.0 (Windows NT 10.0; Win64; x64) AppleWebKit/537.36 (KHTML, like Gecko) draw.io/24.7.17 Chrome/128.0.6613.36 Electron/32.0.1 Safari/537.36" version="24.7.17">
  <diagram id="bO28bJGwZdDytMCYZjy-" name="第 1 页">
    <mxGraphModel dx="1276" dy="606" grid="0" gridSize="10" guides="1" tooltips="1" connect="1" arrows="1" fold="1" page="1" pageScale="1" pageWidth="1700" pageHeight="1100" math="0" shadow="0">
      <root>
        <mxCell id="0" />
        <mxCell id="1" parent="0" />
        <mxCell id="node2" value="&lt;font style=&#39;font-size: 14.0px;&#39; face=&#39;Microsoft JhengHei&#39; color=&#39;#000000&#39;&gt;門市&lt;/font&gt;" style="verticalAlign=middle;html=1;rounded=0;labelBackgroundColor=none;strokeColor=black;fillColor=#e6e6fa;strokeWidth=1;dashed=0;" parent="1" vertex="1">
          <mxGeometry x="883.5" y="263" width="73" height="59" as="geometry" />
        </mxCell>
        <mxCell id="node12" value="&lt;font style=&#39;font-size: 14.0px;&#39; face=&#39;Microsoft JhengHei&#39; color=&#39;#000000&#39;&gt;3.&lt;br/&gt;門市管理&lt;/font&gt;" style="ellipse;aspect=fixed;verticalAlign=middle;html=1;rounded=0;labelBackgroundColor=none;strokeColor=black;fillColor=#ffe4b5;strokeWidth=1;dashed=0;" parent="1" vertex="1">
          <mxGeometry x="869" y="724" width="108" height="108" as="geometry" />
        </mxCell>
        <mxCell id="node3" value="&lt;font style=&#39;font-size: 14.0px;&#39; face=&#39;Microsoft JhengHei&#39; color=&#39;#000000&#39;&gt;行銷部門&lt;/font&gt;" style="verticalAlign=middle;html=1;rounded=0;labelBackgroundColor=none;strokeColor=black;fillColor=#e6e6fa;strokeWidth=1;dashed=0;" parent="1" vertex="1">
          <mxGeometry x="579" y="263" width="102" height="59" as="geometry" />
        </mxCell>
        <mxCell id="node13" value="&lt;font style=&#39;font-size: 14.0px;&#39; face=&#39;Microsoft JhengHei&#39; color=&#39;#000000&#39;&gt;4.&lt;br/&gt;行銷活動&lt;/font&gt;" style="ellipse;aspect=fixed;verticalAlign=middle;html=1;rounded=0;labelBackgroundColor=none;strokeColor=black;fillColor=#ffe4b5;strokeWidth=1;dashed=0;" parent="1" vertex="1">
          <mxGeometry x="560" y="732" width="108" height="108" as="geometry" />
        </mxCell>
        <mxCell id="node8" value="&lt;font style=&#39;font-size: 14.0px;&#39; face=&#39;Microsoft JhengHei&#39; color=&#39;#000000&#39;&gt;D4 行銷活動資料庫&lt;/font&gt;" style="verticalAlign=middle;html=1;rounded=0;labelBackgroundColor=none;strokeColor=black;fillColor=#98fb98;strokeWidth=1;dashed=1;" parent="1" vertex="1">
          <mxGeometry x="478" y="380" width="125" height="37" as="geometry" />
        </mxCell>
        <mxCell id="node9" value="&lt;font style=&#39;font-size: 14.0px;&#39; face=&#39;Microsoft JhengHei&#39; color=&#39;#000000&#39;&gt;D5 商品資料庫&lt;/font&gt;" style="verticalAlign=middle;html=1;rounded=0;labelBackgroundColor=none;strokeColor=black;fillColor=#98fb98;strokeWidth=1;dashed=1;" parent="1" vertex="1">
          <mxGeometry x="707" y="381" width="108" height="36" as="geometry" />
        </mxCell>
        <mxCell id="node14" value="&lt;font style=&#39;font-size: 14.0px;&#39; face=&#39;Microsoft JhengHei&#39; color=&#39;#000000&#39;&gt;5.&lt;br/&gt;庫存管理&lt;/font&gt;" style="ellipse;aspect=fixed;verticalAlign=middle;html=1;rounded=0;labelBackgroundColor=none;strokeColor=black;fillColor=#ffe4b5;strokeWidth=1;dashed=0;" parent="1" vertex="1">
          <mxGeometry x="718" y="499" width="108" height="108" as="geometry" />
        </mxCell>
        <mxCell id="edge3" style="html=1;endArrow=block;dashed=0;endFill=1;startArrow=none;startFill=0;fillColor=black;strokeColor=black;strokeWidth=1;rounded=0;exitX=0.25;exitY=1;entryX=0.4329;entryY=0.0000;exitDx=0;exitDy=0;" parent="1" source="node2" edge="1">
          <mxGeometry relative="1" as="geometry">
            <mxPoint x="904" y="337" as="sourcePoint" />
            <mxPoint x="907.8108396694611" y="735.4806953170978" as="targetPoint" />
          </mxGeometry>
        </mxCell>
        <mxCell id="label_edge3" value="&lt;font style=&#39;font-size: 10.0px;&#39; face=&#39;Microsoft JhengHei&#39; color=&#39;#000000&#39;&gt; 銷售數據&lt;/font&gt;" style="edgeLabel;html=1;align=center;verticalAlign=bottom;resizable=0;points=[];" parent="edge3" vertex="1" connectable="0">
          <mxGeometry relative="1" as="geometry">
            <mxPoint x="-1" y="-163" as="offset" />
          </mxGeometry>
        </mxCell>
        <mxCell id="edge4" style="html=1;endArrow=block;dashed=0;endFill=1;startArrow=none;startFill=0;fillColor=black;strokeColor=black;strokeWidth=1;rounded=0;exitX=0.5;exitY=1;entryX=0.59;entryY=0.011;exitDx=0;exitDy=0;entryDx=0;entryDy=0;entryPerimeter=0;" parent="1" source="node3" target="node13" edge="1">
          <mxGeometry relative="1" as="geometry">
            <mxPoint x="625.8500000000004" y="250" as="sourcePoint" />
            <mxPoint x="614.1521243321677" y="742.4169946573431" as="targetPoint" />
            <Array as="points" />
          </mxGeometry>
        </mxCell>
        <mxCell id="label_edge4" value="&lt;font style=&#39;font-size: 10.0px;&#39; face=&#39;Microsoft JhengHei&#39; color=&#39;#000000&#39;&gt; 活動規劃&lt;/font&gt;" style="edgeLabel;html=1;align=center;verticalAlign=bottom;resizable=0;points=[];rotation=0;" parent="edge4" vertex="1" connectable="0">
          <mxGeometry relative="1" as="geometry">
            <mxPoint x="-1" y="7" as="offset" />
          </mxGeometry>
        </mxCell>
        <mxCell id="edge18" style="html=1;endArrow=block;dashed=0;endFill=1;startArrow=none;startFill=0;fillColor=black;strokeColor=black;strokeWidth=1;rounded=0;exitX=0.0000;exitY=0.3333;entryX=0.5;entryY=0;entryDx=0;entryDy=0;" parent="1" source="node7" target="node12" edge="1">
          <mxGeometry relative="1" as="geometry">
            <mxPoint x="1088.73" y="392" as="sourcePoint" />
            <mxPoint x="914" y="680.9200000000001" as="targetPoint" />
            <Array as="points">
              <mxPoint x="920" y="394" />
            </Array>
          </mxGeometry>
        </mxCell>
        <mxCell id="label_edge18" value="&lt;font style=&#39;font-size: 10.0px;&#39; face=&#39;Microsoft JhengHei&#39; color=&#39;#000000&#39;&gt; 查詢門市&lt;/font&gt;" style="edgeLabel;html=1;align=center;verticalAlign=bottom;resizable=0;points=[];" parent="edge18" vertex="1" connectable="0">
          <mxGeometry relative="1" as="geometry">
            <mxPoint x="136" y="-26" as="offset" />
          </mxGeometry>
        </mxCell>
        <mxCell id="edge19" style="html=1;endArrow=block;dashed=0;endFill=1;startArrow=none;startFill=0;fillColor=black;strokeColor=black;strokeWidth=1;rounded=0;exitX=0.671;exitY=1.069;entryX=-0.003;entryY=0.403;exitDx=0;exitDy=0;exitPerimeter=0;entryDx=0;entryDy=0;entryPerimeter=0;" parent="1" source="node8" target="node13" edge="1">
          <mxGeometry relative="1" as="geometry">
            <mxPoint x="585" y="416.16999999999996" as="sourcePoint" />
            <mxPoint x="585" y="895.06" as="targetPoint" />
            <Array as="points" />
          </mxGeometry>
        </mxCell>
        <mxCell id="label_edge19" value="&lt;font style=&#39;font-size: 10.0px;&#39; face=&#39;Microsoft JhengHei&#39; color=&#39;#000000&#39;&gt; 查詢活動&lt;/font&gt;" style="edgeLabel;html=1;align=center;verticalAlign=bottom;resizable=0;points=[];" parent="edge19" vertex="1" connectable="0">
          <mxGeometry relative="1" as="geometry">
            <mxPoint x="-3" y="75" as="offset" />
          </mxGeometry>
        </mxCell>
        <mxCell id="edge10" style="html=1;endArrow=block;dashed=0;endFill=1;startArrow=none;startFill=0;fillColor=black;strokeColor=black;strokeWidth=1;rounded=0;exitX=0.0000;exitY=0.6667;entryX=0.981;entryY=0.574;entryDx=0;entryDy=0;entryPerimeter=0;" parent="1" source="node12" target="node13" edge="1">
          <mxGeometry relative="1" as="geometry">
            <mxPoint x="851.94" y="762" as="sourcePoint" />
            <mxPoint x="662.25" y="881.34" as="targetPoint" />
            <Array as="points" />
          </mxGeometry>
        </mxCell>
        <mxCell id="label_edge10" value="&lt;font style=&#39;font-size: 10.0px;&#39; face=&#39;Microsoft JhengHei&#39; color=&#39;#000000&#39;&gt; 銷售分析&lt;/font&gt;" style="edgeLabel;html=1;align=center;verticalAlign=bottom;resizable=0;points=[];" parent="edge10" vertex="1" connectable="0">
          <mxGeometry relative="1" as="geometry" />
        </mxCell>
        <mxCell id="edge13" style="html=1;endArrow=block;dashed=0;endFill=1;startArrow=none;startFill=0;fillColor=black;strokeColor=black;strokeWidth=1;rounded=0;exitX=0.27;exitY=0.029;entryX=0.9167;entryY=1.0000;exitDx=0;exitDy=0;exitPerimeter=0;" parent="1" source="node13" target="node8" edge="1">
          <mxGeometry relative="1" as="geometry">
            <mxPoint x="594" y="894.64" as="sourcePoint" />
            <mxPoint x="594" y="426.22" as="targetPoint" />
          </mxGeometry>
        </mxCell>
        <mxCell id="label_edge13" value="&lt;font style=&#39;font-size: 10.0px;&#39; face=&#39;Microsoft JhengHei&#39; color=&#39;#000000&#39;&gt; 活動資訊&lt;/font&gt;" style="edgeLabel;html=1;align=center;verticalAlign=bottom;resizable=0;points=[];" parent="edge13" vertex="1" connectable="0">
          <mxGeometry relative="1" as="geometry">
            <mxPoint x="2" y="27" as="offset" />
          </mxGeometry>
        </mxCell>
        <mxCell id="edge12" style="html=1;endArrow=block;dashed=0;endFill=1;startArrow=none;startFill=0;fillColor=black;strokeColor=black;strokeWidth=1;rounded=0;exitX=0.948;exitY=0.248;entryX=0.0000;entryY=0.3333;exitDx=0;exitDy=0;exitPerimeter=0;" parent="1" source="node13" target="node12" edge="1">
          <mxGeometry relative="1" as="geometry">
            <mxPoint x="642.5" y="882.26" as="sourcePoint" />
            <mxPoint x="841.8399999999999" y="726" as="targetPoint" />
            <Array as="points" />
          </mxGeometry>
        </mxCell>
        <mxCell id="label_edge12" value="&lt;font style=&#39;font-size: 10.0px;&#39; face=&#39;Microsoft JhengHei&#39; color=&#39;#000000&#39;&gt; 促銷方案&lt;/font&gt;" style="edgeLabel;html=1;align=center;verticalAlign=bottom;resizable=0;points=[];" parent="edge12" vertex="1" connectable="0">
          <mxGeometry relative="1" as="geometry" />
        </mxCell>
        <mxCell id="edge15" style="html=1;endArrow=block;dashed=0;endFill=1;startArrow=none;startFill=0;fillColor=black;strokeColor=black;strokeWidth=1;rounded=0;exitX=0.2222;exitY=0.0000;entryX=0.361;entryY=0.987;entryDx=0;entryDy=0;entryPerimeter=0;" parent="1" source="node14" target="node9" edge="1">
          <mxGeometry relative="1" as="geometry">
            <mxPoint x="742" y="507.75" as="sourcePoint" />
            <mxPoint x="742" y="426.15999999999997" as="targetPoint" />
          </mxGeometry>
        </mxCell>
        <mxCell id="label_edge15" value="&lt;font style=&#39;font-size: 10.0px;&#39; face=&#39;Microsoft JhengHei&#39; color=&#39;#000000&#39;&gt; 商品資訊&lt;/font&gt;" style="edgeLabel;html=1;align=center;verticalAlign=bottom;resizable=0;points=[];" parent="edge15" connectable="0" vertex="1">
          <mxGeometry relative="1" as="geometry" />
        </mxCell>
        <mxCell id="edge14" style="html=1;endArrow=block;dashed=0;endFill=1;startArrow=none;startFill=0;fillColor=black;strokeColor=black;strokeWidth=1;rounded=0;exitX=1.0000;exitY=0.5000;entryX=0.1319;entryY=0.0000;" parent="1" source="node14" target="node12" edge="1">
          <mxGeometry relative="1" as="geometry">
            <mxPoint x="826.1400000000001" y="553" as="sourcePoint" />
            <mxPoint x="863.25" y="697.1700000000001" as="targetPoint" />
            <Array as="points">
              <mxPoint x="888" y="553" />
            </Array>
          </mxGeometry>
        </mxCell>
        <mxCell id="label_edge14" value="&lt;font style=&quot;font-size: 10.0px;&quot; face=&quot;Microsoft JhengHei&quot; color=&quot;#000000&quot;&gt; 商品查詢&lt;/font&gt;" style="edgeLabel;html=1;align=center;verticalAlign=bottom;resizable=0;points=[];" parent="edge14" connectable="0" vertex="1">
          <mxGeometry relative="1" as="geometry">
            <mxPoint x="-32" y="-48" as="offset" />
          </mxGeometry>
        </mxCell>
        <mxCell id="iv-SBwb-0ntiUDycKaLb-1" value="" style="html=1;endArrow=block;dashed=0;endFill=1;startArrow=none;startFill=0;fillColor=black;strokeColor=black;strokeWidth=1;rounded=0;exitX=1;exitY=0.5;exitDx=0;exitDy=0;" parent="1" source="node12" target="node7" edge="1">
          <mxGeometry relative="1" as="geometry">
            <mxPoint x="964" y="705" as="sourcePoint" />
            <mxPoint x="1024.25" y="477.0011999999999" as="targetPoint" />
            <Array as="points" />
          </mxGeometry>
        </mxCell>
        <mxCell id="iv-SBwb-0ntiUDycKaLb-2" value="&lt;font style=&#39;font-size: 10.0px;&#39; face=&#39;Microsoft JhengHei&#39; color=&#39;#000000&#39;&gt; 門市資訊更新&lt;/font&gt;" style="edgeLabel;html=1;align=center;verticalAlign=bottom;resizable=0;points=[];" parent="iv-SBwb-0ntiUDycKaLb-1" connectable="0" vertex="1">
          <mxGeometry relative="1" as="geometry">
            <mxPoint x="-15" y="-29" as="offset" />
          </mxGeometry>
        </mxCell>
        <mxCell id="node7" value="&lt;font style=&#39;font-size: 14.0px;&#39; face=&#39;Microsoft JhengHei&#39; color=&#39;#000000&#39;&gt;D3 門市資料庫&lt;/font&gt;" style="verticalAlign=middle;html=1;rounded=0;labelBackgroundColor=none;strokeColor=black;fillColor=#98fb98;strokeWidth=1;dashed=1;" parent="1" vertex="1">
          <mxGeometry x="1180" y="380" width="108" height="36" as="geometry" />
        </mxCell>
      </root>
    </mxGraphModel>
  </diagram>
</mxfile>
